# xmcd
#
# Track frame offsets:
# 182
# 13842
# 33382
# 45835
# 61287
# 75445
# 91630
# 114080
# 127417
# 151965
# 164545
# 178007
# 191542
# 208392
# 224400
# 240132
# 253197
# 273485
#
# Disc length: 3668 seconds
#
#
# Revision: 0
# Processed by: cddbd v1.5.1PL0 Copyright (c) Steve Scherf et al.
# Submitted via: FreeRIP 2.92 
#
DISCID=f10e5212
DTITLE=Firehouse Revival - Ghostheartpost
DYEAR=1990
DGENRE=Blues
TTITLE0=Firehouse Stomp
TTITLE1=Red Sails in the Sunset
TTITLE2=Button Up Your Overcoat
TTITLE3=Panama
TTITLE4=Fireman's Lament
TTITLE5=Russian Lullabe
TTITLE6=Original Dixieland Onestep
TTITLE7=Yes Sir That's My Baby
TTITLE8=Canal Street Blues
TTITLE9=San Antonio Rose
TTITLE10=Maple Leaf Rag
TTITLE11=Bill Bailey
TTITLE12=Muskrat Ramble
TTITLE13=Jass Me Blues
TTITLE14=Royal Garden Blues
TTITLE15=Heart of my Heart
TTITLE16=Fidgety Feet
TTITLE17=Firehouse Interval Signal
EXTD=
EXTT0=
EXTT1=
EXTT2=
EXTT3=
EXTT4=
EXTT5=
EXTT6=
EXTT7=
EXTT8=
EXTT9=
EXTT10=
EXTT11=
EXTT12=
EXTT13=
EXTT14=
EXTT15=
EXTT16=
EXTT17=
PLAYORDER=
